<svg xmlns="http://www.w3.org/2000/svg" width="512" height="512" viewBox="0 0 512 512" version="1.1">
	<path d="M 245.500 44.869 C 230.717 51.944, 211.375 63.002, 195.073 73.699 C 117.249 124.763, 72.371 186.731, 65.067 253.211 C 61.163 288.742, 69.575 321.720, 89.340 348.378 L 95.308 356.427 92.509 358.464 C 66.250 377.568, 47.212 399.689, 40.205 419.238 C 38.117 425.062, 37.592 428.381, 37.551 436 C 37.507 444.269, 37.846 446.238, 40.170 451.196 C 44.912 461.313, 54.627 468.897, 68.500 473.313 C 86.058 478.902, 115.696 478.363, 141.220 471.991 C 182.687 461.637, 216.702 443.750, 248.292 415.685 L 256.083 408.763 262.292 414.677 C 293.014 443.944, 338.913 466.789, 383.912 475.210 C 400.559 478.325, 425.876 478.338, 438.234 475.237 C 478.500 465.133, 486.524 432.999, 458.170 395.390 C 451.030 385.919, 436.568 371.767, 425.250 363.174 C 420.712 359.729, 417 356.729, 417 356.508 C 417 356.287, 419.224 353.168, 421.942 349.576 C 432.701 335.362, 441.149 317.311, 445.238 299.805 C 447.078 291.923, 447.415 287.441, 447.439 270.500 C 447.471 247.449, 445.777 236.533, 438.917 215.600 C 420.383 159.043, 370.453 104.409, 298.238 61.666 C 287.159 55.109, 257.754 39.960, 256.262 40.042 C 255.843 40.065, 251 42.237, 245.500 44.869" stroke="none" fill="black" fill-rule="evenodd"/>
</svg>